<svg xmlns="http://www.w3.org/2000/svg" xmlns:xlink="http://www.w3.org/1999/xlink" version="1.1" x="0px" y="0px" viewBox="-17.5 -17.5 100 125" enable-background="new -17.5 -17.5 100 100" xml:space="preserve"><path d="M32.501,20c-6.893,0-12.5,5.607-12.5,12.5S25.608,45,32.501,45c6.892,0,12.498-5.607,12.498-12.5S39.393,20,32.501,20z   M32.501,43.5c-6.065,0-11-4.935-11-11s4.935-11,11-11c6.064,0,10.998,4.935,10.998,11S38.565,43.5,32.501,43.5z"/><path d="M32.501,11.188c-11.752,0-21.313,9.561-21.313,21.313s9.561,21.313,21.313,21.313c11.751,0,21.311-9.561,21.311-21.313  S44.252,11.188,32.501,11.188z M32.501,52.313c-10.925,0-19.813-8.888-19.813-19.813s8.888-19.813,19.813-19.813  c10.924,0,19.811,8.888,19.811,19.813S43.425,52.313,32.501,52.313z"/><path d="M32.501,2.375C15.89,2.375,2.376,15.889,2.376,32.5c0,16.611,13.514,30.125,30.125,30.125  c16.61,0,30.123-13.514,30.123-30.125C62.624,15.889,49.111,2.375,32.501,2.375z M32.501,61.125  c-15.784,0-28.625-12.841-28.625-28.625c0-15.784,12.841-28.625,28.625-28.625c15.783,0,28.623,12.841,28.623,28.625  C61.124,48.284,48.284,61.125,32.501,61.125z"/><path d="M32.501-6.438C11.031-6.438-6.437,11.03-6.437,32.5c0,21.47,17.467,38.938,38.938,38.938  c21.469,0,38.936-17.468,38.936-38.938C71.437,11.03,53.97-6.438,32.501-6.438z M32.501,69.938  c-20.643,0-37.438-16.794-37.438-37.438c0-20.643,16.794-37.438,37.438-37.438c20.642,0,37.436,16.794,37.436,37.438  C69.937,53.144,53.143,69.938,32.501,69.938z"/><path d="M32.5-15.25c-26.33,0-47.75,21.42-47.75,47.75c0,26.329,21.42,47.75,47.75,47.75c26.329,0,47.75-21.421,47.75-47.75  C80.25,6.17,58.829-15.25,32.5-15.25z M32.5,78.75c-25.502,0-46.25-20.748-46.25-46.25c0-25.502,20.748-46.25,46.25-46.25  c25.502,0,46.25,20.748,46.25,46.25C78.75,58.002,58.002,78.75,32.5,78.75z"/><text x="-17.5" y="97.5" fill="#000000" font-size="5px" font-weight="bold" font-family="'Helvetica Neue', Helvetica, Arial-Unicode, Arial, Sans-serif">Created by Vectplus</text><text x="-17.5" y="102.5" fill="#000000" font-size="5px" font-weight="bold" font-family="'Helvetica Neue', Helvetica, Arial-Unicode, Arial, Sans-serif">from the Noun Project</text></svg>